<mxfile host="app.diagrams.net" agent="Mozilla/5.0 (Windows NT 10.0; Win64; x64; rv:133.0) Gecko/20100101 Firefox/133.0" version="25.0.3">
  <diagram name="Seite-1" id="D6MCeGrKerhMQp70AOl7">
    <mxGraphModel dx="2120" dy="697" grid="1" gridSize="10" guides="1" tooltips="1" connect="1" arrows="1" fold="1" page="1" pageScale="1" pageWidth="827" pageHeight="1169" math="0" shadow="0">
      <root>
        <mxCell id="0" />
        <mxCell id="1" parent="0" />
        <object label="Advice Line" btelligentShapeType="MeasureGroup" btelligentLibrary="ADAPT" id="GLuP2zMcqy0yixXODWUq-1">
          <mxCell style="group;fillColor=default;connectable=1;whiteSpace=wrap;align=left;spacingTop=5;spacingLeft=31;fontStyle=1;textShadow=0;labelBorderColor=none;labelBackgroundColor=none;" vertex="1" connectable="0" parent="1">
            <mxGeometry x="240" y="280.25" width="160" height="119.5" as="geometry" />
          </mxCell>
        </object>
        <object label="" ADAPT="Measuregroup (Cube)" id="GLuP2zMcqy0yixXODWUq-2">
          <mxCell style="rounded=1;whiteSpace=wrap;html=1;arcSize=12;align=left;spacingLeft=-16;verticalAlign=top;spacingTop=30;fontSize=12;container=0;fillColor=none;noLabel=1;connectable=0;editable=0;movable=1;resizable=1;rotatable=1;deletable=1;locked=0;" vertex="1" parent="GLuP2zMcqy0yixXODWUq-1">
            <mxGeometry width="160" height="119.5" as="geometry" />
          </mxCell>
        </object>
        <mxCell id="GLuP2zMcqy0yixXODWUq-3" value="" style="endArrow=none;html=1;rounded=0;editable=0;" edge="1" parent="GLuP2zMcqy0yixXODWUq-1">
          <mxGeometry width="50" height="50" relative="1" as="geometry">
            <mxPoint x="3" y="39.5" as="sourcePoint" />
            <mxPoint x="158" y="39.5" as="targetPoint" />
            <Array as="points">
              <mxPoint x="73" y="39.5" />
            </Array>
          </mxGeometry>
        </mxCell>
        <mxCell id="GLuP2zMcqy0yixXODWUq-4" style="vsdxID=9;fillColor=#FFFFFF;gradientColor=none;shape=stencil(jZBNDoQgDIVP063BdsEBHOceJqI0w4BB5u/2A+lCZWHcvbZfm9cH1K12WAygWlMMD/PhMVmgGyCytyZyygqoB+qmEM0cw8uPUi9DIYt6hne58JW9Vqmyg+p3rO8CO/Y7+IhqbDRdhU+u1hZQN6iv45XjLLZfJ3ZOotrP62xyS3Kl/g8=);strokeColor=#000000;spacingTop=-3;spacingBottom=-3;spacingLeft=-3;spacingRight=-3;points=[];labelBackgroundColor=none;rounded=0;html=1;whiteSpace=wrap;container=0;editable=0;" vertex="1" parent="GLuP2zMcqy0yixXODWUq-1">
          <mxGeometry x="6.775000000000091" y="13.850000000000023" width="10.725000000000001" height="18.999999999999986" as="geometry" />
        </mxCell>
        <mxCell id="GLuP2zMcqy0yixXODWUq-5" style="vsdxID=10;fillColor=#FFFFFF;gradientColor=none;shape=stencil(jZBNDoQgDIVP063BdsEBHOceJqI0w4BB5u/2A+lCZWHcvbZfm9cH1K12WAygWlMMD/PhMVmgGyCytyZyygqoB+qmEM0cw8uPUi9DIYt6hne58JW9Vqmyg+p3rO8CO/Y7+IhqbDRdhU+u1hZQN6iv45XjLLZfJ3ZOotrP62xyS3Kl/g8=);strokeColor=#000000;spacingTop=-3;spacingBottom=-3;spacingLeft=-3;spacingRight=-3;flipH=1;points=[];labelBackgroundColor=none;rounded=0;html=1;whiteSpace=wrap;container=0;editable=0;" vertex="1" parent="GLuP2zMcqy0yixXODWUq-1">
          <mxGeometry x="17.500000000000092" y="13.850000000000023" width="10.725000000000001" height="18.999999999999986" as="geometry" />
        </mxCell>
        <mxCell id="GLuP2zMcqy0yixXODWUq-6" value="&lt;div style=&quot;font-size: 1px&quot;&gt;&lt;/div&gt;" style="verticalAlign=middle;align=center;overflow=width;vsdxID=11;fillColor=#C0C0C0;gradientColor=none;shape=stencil(nZBNCoQwDIVPk31t8ASO3kOw2mBtpVaduf20BPEHceHuveRLSB5gMel6VCDFFLzr1UpN0IAfkJKsVp5CVIAlYNE6rzrvZtuwH+tEJjW4JW348lwmRJqR4sc+Z1sxa8ge2PyMPpCvd27n3LLPt0axP9mSMZzRsX8NJZY4UCz/);strokeColor=#000000;spacingTop=-3;spacingBottom=-3;spacingLeft=-3;spacingRight=-3;points=[];labelBackgroundColor=none;rounded=0;html=1;whiteSpace=wrap;container=0;editable=0;" vertex="1" parent="GLuP2zMcqy0yixXODWUq-1">
          <mxGeometry x="6.775000000000091" y="8.149999999999977" width="21.450000000000003" height="11.399999999999995" as="geometry" />
        </mxCell>
        <mxCell id="GLuP2zMcqy0yixXODWUq-7" value="&lt;ul&gt;&lt;li&gt;&amp;lt;connected to&amp;gt;&lt;br&gt;&lt;/li&gt;&lt;/ul&gt;" style="text;html=1;align=left;verticalAlign=top;whiteSpace=wrap;rounded=0;spacingLeft=-31;fontSize=10;spacingTop=-14;connectable=0;" vertex="1" parent="GLuP2zMcqy0yixXODWUq-1">
          <mxGeometry x="7" y="42" width="150" height="73" as="geometry" />
        </mxCell>
        <object label="Client" btelligentShapeType="Dimension" btelligentLibrary="ADAPT" id="GLuP2zMcqy0yixXODWUq-8">
          <mxCell style="group;fillColor=default;verticalAlign=middle;align=left;spacingLeft=31;fontStyle=1;connectable=1;whiteSpace=wrap;" vertex="1" connectable="0" parent="1">
            <mxGeometry x="-80" y="160" width="160" height="40" as="geometry" />
          </mxCell>
        </object>
        <object label="GGG" id="GLuP2zMcqy0yixXODWUq-9">
          <mxCell style="rounded=0;whiteSpace=wrap;html=1;noLabel=1;container=0;editable=0;movable=1;resizable=1;rotatable=1;deletable=1;locked=0;connectable=0;fillColor=none;" vertex="1" parent="GLuP2zMcqy0yixXODWUq-8">
            <mxGeometry width="160" height="40" as="geometry" />
          </mxCell>
        </object>
        <mxCell id="GLuP2zMcqy0yixXODWUq-10" value="" style="rounded=0;whiteSpace=wrap;html=1;fillColor=#000000;fontColor=#ffffff;strokeColor=#000000;strokeWidth=1;deletable=1;cloneable=0;movable=1;editable=1;resizable=1;rotatable=1;locked=0;connectable=1;container=0;expand=0;recursiveResize=0;allowArrows=0;" vertex="1" parent="GLuP2zMcqy0yixXODWUq-8">
          <mxGeometry x="6.000000000000028" y="14" width="10" height="10" as="geometry" />
        </mxCell>
        <mxCell id="GLuP2zMcqy0yixXODWUq-11" value="" style="endArrow=block;html=1;rounded=0;endFill=1;startSize=2;endSize=3;strokeWidth=1;deletable=1;cloneable=0;movable=1;editable=1;resizable=1;rotatable=1;locked=0;connectable=1;" edge="1" parent="GLuP2zMcqy0yixXODWUq-8">
          <mxGeometry width="50" height="50" relative="1" as="geometry">
            <mxPoint x="15.000000000000028" y="14" as="sourcePoint" />
            <mxPoint x="28.00000000000003" y="14" as="targetPoint" />
          </mxGeometry>
        </mxCell>
        <mxCell id="GLuP2zMcqy0yixXODWUq-12" value="" style="endArrow=block;html=1;rounded=0;endFill=1;startSize=2;endSize=3;strokeWidth=1;deletable=1;cloneable=0;movable=1;editable=1;resizable=1;rotatable=1;locked=0;connectable=1;" edge="1" parent="GLuP2zMcqy0yixXODWUq-8">
          <mxGeometry width="50" height="50" relative="1" as="geometry">
            <mxPoint x="6.000000000000028" y="22" as="sourcePoint" />
            <mxPoint x="6.000000000000028" y="36" as="targetPoint" />
          </mxGeometry>
        </mxCell>
        <mxCell id="GLuP2zMcqy0yixXODWUq-13" value="" style="endArrow=block;html=1;rounded=0;endFill=1;startSize=2;endSize=3;strokeWidth=1;deletable=1;cloneable=0;movable=1;editable=1;resizable=1;rotatable=1;locked=0;connectable=1;" edge="1" parent="GLuP2zMcqy0yixXODWUq-8">
          <mxGeometry width="50" height="50" relative="1" as="geometry">
            <mxPoint x="6.000000000000028" y="14" as="sourcePoint" />
            <mxPoint x="17.00000000000003" y="4" as="targetPoint" />
          </mxGeometry>
        </mxCell>
        <object label="Timestamp" btelligentShapeType="Dimension" btelligentLibrary="ADAPT" id="GLuP2zMcqy0yixXODWUq-14">
          <mxCell style="group;fillColor=default;verticalAlign=middle;align=left;spacingLeft=31;fontStyle=1;connectable=1;whiteSpace=wrap;" vertex="1" connectable="0" parent="1">
            <mxGeometry x="600" y="400.25" width="160" height="40" as="geometry" />
          </mxCell>
        </object>
        <object label="GGG" id="GLuP2zMcqy0yixXODWUq-15">
          <mxCell style="rounded=0;whiteSpace=wrap;html=1;noLabel=1;container=0;editable=0;movable=1;resizable=1;rotatable=1;deletable=1;locked=0;connectable=0;fillColor=none;" vertex="1" parent="GLuP2zMcqy0yixXODWUq-14">
            <mxGeometry width="160" height="40" as="geometry" />
          </mxCell>
        </object>
        <mxCell id="GLuP2zMcqy0yixXODWUq-16" value="" style="rounded=0;whiteSpace=wrap;html=1;fillColor=#000000;fontColor=#ffffff;strokeColor=#000000;strokeWidth=1;deletable=1;cloneable=0;movable=1;editable=1;resizable=1;rotatable=1;locked=0;connectable=1;container=0;expand=0;recursiveResize=0;allowArrows=0;" vertex="1" parent="GLuP2zMcqy0yixXODWUq-14">
          <mxGeometry x="6.000000000000028" y="14" width="10" height="10" as="geometry" />
        </mxCell>
        <mxCell id="GLuP2zMcqy0yixXODWUq-17" value="" style="endArrow=block;html=1;rounded=0;endFill=1;startSize=2;endSize=3;strokeWidth=1;deletable=1;cloneable=0;movable=1;editable=1;resizable=1;rotatable=1;locked=0;connectable=1;" edge="1" parent="GLuP2zMcqy0yixXODWUq-14">
          <mxGeometry width="50" height="50" relative="1" as="geometry">
            <mxPoint x="15.000000000000028" y="14" as="sourcePoint" />
            <mxPoint x="28.00000000000003" y="14" as="targetPoint" />
          </mxGeometry>
        </mxCell>
        <mxCell id="GLuP2zMcqy0yixXODWUq-18" value="" style="endArrow=block;html=1;rounded=0;endFill=1;startSize=2;endSize=3;strokeWidth=1;deletable=1;cloneable=0;movable=1;editable=1;resizable=1;rotatable=1;locked=0;connectable=1;" edge="1" parent="GLuP2zMcqy0yixXODWUq-14">
          <mxGeometry width="50" height="50" relative="1" as="geometry">
            <mxPoint x="6.000000000000028" y="22" as="sourcePoint" />
            <mxPoint x="6.000000000000028" y="36" as="targetPoint" />
          </mxGeometry>
        </mxCell>
        <mxCell id="GLuP2zMcqy0yixXODWUq-19" value="" style="endArrow=block;html=1;rounded=0;endFill=1;startSize=2;endSize=3;strokeWidth=1;deletable=1;cloneable=0;movable=1;editable=1;resizable=1;rotatable=1;locked=0;connectable=1;" edge="1" parent="GLuP2zMcqy0yixXODWUq-14">
          <mxGeometry width="50" height="50" relative="1" as="geometry">
            <mxPoint x="6.000000000000028" y="14" as="sourcePoint" />
            <mxPoint x="17.00000000000003" y="4" as="targetPoint" />
          </mxGeometry>
        </mxCell>
        <object label="Calendar" btelligentShapeType="Dimension" btelligentLibrary="ADAPT" id="GLuP2zMcqy0yixXODWUq-20">
          <mxCell style="group;fillColor=default;verticalAlign=middle;align=left;spacingLeft=31;fontStyle=1;connectable=1;whiteSpace=wrap;" vertex="1" connectable="0" parent="1">
            <mxGeometry x="600" y="240" width="160" height="40" as="geometry" />
          </mxCell>
        </object>
        <object label="GGG" id="GLuP2zMcqy0yixXODWUq-21">
          <mxCell style="rounded=0;whiteSpace=wrap;html=1;noLabel=1;container=0;editable=0;movable=1;resizable=1;rotatable=1;deletable=1;locked=0;connectable=0;fillColor=none;" vertex="1" parent="GLuP2zMcqy0yixXODWUq-20">
            <mxGeometry width="160" height="40" as="geometry" />
          </mxCell>
        </object>
        <mxCell id="GLuP2zMcqy0yixXODWUq-22" value="" style="rounded=0;whiteSpace=wrap;html=1;fillColor=#000000;fontColor=#ffffff;strokeColor=#000000;strokeWidth=1;deletable=1;cloneable=0;movable=1;editable=1;resizable=1;rotatable=1;locked=0;connectable=1;container=0;expand=0;recursiveResize=0;allowArrows=0;" vertex="1" parent="GLuP2zMcqy0yixXODWUq-20">
          <mxGeometry x="6.000000000000028" y="14" width="10" height="10" as="geometry" />
        </mxCell>
        <mxCell id="GLuP2zMcqy0yixXODWUq-23" value="" style="endArrow=block;html=1;rounded=0;endFill=1;startSize=2;endSize=3;strokeWidth=1;deletable=1;cloneable=0;movable=1;editable=1;resizable=1;rotatable=1;locked=0;connectable=1;" edge="1" parent="GLuP2zMcqy0yixXODWUq-20">
          <mxGeometry width="50" height="50" relative="1" as="geometry">
            <mxPoint x="15.000000000000028" y="14" as="sourcePoint" />
            <mxPoint x="28.00000000000003" y="14" as="targetPoint" />
          </mxGeometry>
        </mxCell>
        <mxCell id="GLuP2zMcqy0yixXODWUq-24" value="" style="endArrow=block;html=1;rounded=0;endFill=1;startSize=2;endSize=3;strokeWidth=1;deletable=1;cloneable=0;movable=1;editable=1;resizable=1;rotatable=1;locked=0;connectable=1;" edge="1" parent="GLuP2zMcqy0yixXODWUq-20">
          <mxGeometry width="50" height="50" relative="1" as="geometry">
            <mxPoint x="6.000000000000028" y="22" as="sourcePoint" />
            <mxPoint x="6.000000000000028" y="36" as="targetPoint" />
          </mxGeometry>
        </mxCell>
        <mxCell id="GLuP2zMcqy0yixXODWUq-25" value="" style="endArrow=block;html=1;rounded=0;endFill=1;startSize=2;endSize=3;strokeWidth=1;deletable=1;cloneable=0;movable=1;editable=1;resizable=1;rotatable=1;locked=0;connectable=1;" edge="1" parent="GLuP2zMcqy0yixXODWUq-20">
          <mxGeometry width="50" height="50" relative="1" as="geometry">
            <mxPoint x="6.000000000000028" y="14" as="sourcePoint" />
            <mxPoint x="17.00000000000003" y="4" as="targetPoint" />
          </mxGeometry>
        </mxCell>
        <object label="Calendar" btelligentShapeType="Dimension" btelligentLibrary="ADAPT" id="GLuP2zMcqy0yixXODWUq-26">
          <mxCell style="group;fillColor=default;verticalAlign=middle;align=left;spacingLeft=31;fontStyle=1;connectable=1;whiteSpace=wrap;" vertex="1" connectable="0" parent="1">
            <mxGeometry x="600" y="320" width="160" height="40" as="geometry" />
          </mxCell>
        </object>
        <object label="GGG" id="GLuP2zMcqy0yixXODWUq-27">
          <mxCell style="rounded=0;whiteSpace=wrap;html=1;noLabel=1;container=0;editable=0;movable=1;resizable=1;rotatable=1;deletable=1;locked=0;connectable=0;fillColor=none;" vertex="1" parent="GLuP2zMcqy0yixXODWUq-26">
            <mxGeometry width="160" height="40" as="geometry" />
          </mxCell>
        </object>
        <mxCell id="GLuP2zMcqy0yixXODWUq-28" value="" style="rounded=0;whiteSpace=wrap;html=1;fillColor=#000000;fontColor=#ffffff;strokeColor=#000000;strokeWidth=1;deletable=1;cloneable=0;movable=1;editable=1;resizable=1;rotatable=1;locked=0;connectable=1;container=0;expand=0;recursiveResize=0;allowArrows=0;" vertex="1" parent="GLuP2zMcqy0yixXODWUq-26">
          <mxGeometry x="6.000000000000028" y="14" width="10" height="10" as="geometry" />
        </mxCell>
        <mxCell id="GLuP2zMcqy0yixXODWUq-29" value="" style="endArrow=block;html=1;rounded=0;endFill=1;startSize=2;endSize=3;strokeWidth=1;deletable=1;cloneable=0;movable=1;editable=1;resizable=1;rotatable=1;locked=0;connectable=1;" edge="1" parent="GLuP2zMcqy0yixXODWUq-26">
          <mxGeometry width="50" height="50" relative="1" as="geometry">
            <mxPoint x="15.000000000000028" y="14" as="sourcePoint" />
            <mxPoint x="28.00000000000003" y="14" as="targetPoint" />
          </mxGeometry>
        </mxCell>
        <mxCell id="GLuP2zMcqy0yixXODWUq-30" value="" style="endArrow=block;html=1;rounded=0;endFill=1;startSize=2;endSize=3;strokeWidth=1;deletable=1;cloneable=0;movable=1;editable=1;resizable=1;rotatable=1;locked=0;connectable=1;" edge="1" parent="GLuP2zMcqy0yixXODWUq-26">
          <mxGeometry width="50" height="50" relative="1" as="geometry">
            <mxPoint x="6.000000000000028" y="22" as="sourcePoint" />
            <mxPoint x="6.000000000000028" y="36" as="targetPoint" />
          </mxGeometry>
        </mxCell>
        <mxCell id="GLuP2zMcqy0yixXODWUq-31" value="" style="endArrow=block;html=1;rounded=0;endFill=1;startSize=2;endSize=3;strokeWidth=1;deletable=1;cloneable=0;movable=1;editable=1;resizable=1;rotatable=1;locked=0;connectable=1;" edge="1" parent="GLuP2zMcqy0yixXODWUq-26">
          <mxGeometry width="50" height="50" relative="1" as="geometry">
            <mxPoint x="6.000000000000028" y="14" as="sourcePoint" />
            <mxPoint x="17.00000000000003" y="4" as="targetPoint" />
          </mxGeometry>
        </mxCell>
        <object label="Advice Line" btelligentShapeType="Dimension" btelligentLibrary="ADAPT" id="GLuP2zMcqy0yixXODWUq-32">
          <mxCell style="group;fillColor=default;verticalAlign=middle;align=left;spacingLeft=31;fontStyle=1;connectable=1;whiteSpace=wrap;" vertex="1" connectable="0" parent="1">
            <mxGeometry x="-80" y="399.5" width="160" height="40" as="geometry" />
          </mxCell>
        </object>
        <object label="GGG" id="GLuP2zMcqy0yixXODWUq-33">
          <mxCell style="rounded=0;whiteSpace=wrap;html=1;noLabel=1;container=0;editable=0;movable=1;resizable=1;rotatable=1;deletable=1;locked=0;connectable=0;fillColor=none;" vertex="1" parent="GLuP2zMcqy0yixXODWUq-32">
            <mxGeometry width="160" height="40" as="geometry" />
          </mxCell>
        </object>
        <mxCell id="GLuP2zMcqy0yixXODWUq-34" value="" style="rounded=0;whiteSpace=wrap;html=1;fillColor=#000000;fontColor=#ffffff;strokeColor=#000000;strokeWidth=1;deletable=1;cloneable=0;movable=1;editable=1;resizable=1;rotatable=1;locked=0;connectable=1;container=0;expand=0;recursiveResize=0;allowArrows=0;" vertex="1" parent="GLuP2zMcqy0yixXODWUq-32">
          <mxGeometry x="6.000000000000028" y="14" width="10" height="10" as="geometry" />
        </mxCell>
        <mxCell id="GLuP2zMcqy0yixXODWUq-35" value="" style="endArrow=block;html=1;rounded=0;endFill=1;startSize=2;endSize=3;strokeWidth=1;deletable=1;cloneable=0;movable=1;editable=1;resizable=1;rotatable=1;locked=0;connectable=1;" edge="1" parent="GLuP2zMcqy0yixXODWUq-32">
          <mxGeometry width="50" height="50" relative="1" as="geometry">
            <mxPoint x="15.000000000000028" y="14" as="sourcePoint" />
            <mxPoint x="28.00000000000003" y="14" as="targetPoint" />
          </mxGeometry>
        </mxCell>
        <mxCell id="GLuP2zMcqy0yixXODWUq-36" value="" style="endArrow=block;html=1;rounded=0;endFill=1;startSize=2;endSize=3;strokeWidth=1;deletable=1;cloneable=0;movable=1;editable=1;resizable=1;rotatable=1;locked=0;connectable=1;" edge="1" parent="GLuP2zMcqy0yixXODWUq-32">
          <mxGeometry width="50" height="50" relative="1" as="geometry">
            <mxPoint x="6.000000000000028" y="22" as="sourcePoint" />
            <mxPoint x="6.000000000000028" y="36" as="targetPoint" />
          </mxGeometry>
        </mxCell>
        <mxCell id="GLuP2zMcqy0yixXODWUq-37" value="" style="endArrow=block;html=1;rounded=0;endFill=1;startSize=2;endSize=3;strokeWidth=1;deletable=1;cloneable=0;movable=1;editable=1;resizable=1;rotatable=1;locked=0;connectable=1;" edge="1" parent="GLuP2zMcqy0yixXODWUq-32">
          <mxGeometry width="50" height="50" relative="1" as="geometry">
            <mxPoint x="6.000000000000028" y="14" as="sourcePoint" />
            <mxPoint x="17.00000000000003" y="4" as="targetPoint" />
          </mxGeometry>
        </mxCell>
        <object label="Location" btelligentShapeType="Dimension" btelligentLibrary="ADAPT" id="GLuP2zMcqy0yixXODWUq-38">
          <mxCell style="group;fillColor=default;verticalAlign=middle;align=left;spacingLeft=31;fontStyle=1;connectable=1;whiteSpace=wrap;" vertex="1" connectable="0" parent="1">
            <mxGeometry x="-80" y="240" width="160" height="40" as="geometry" />
          </mxCell>
        </object>
        <object label="GGG" id="GLuP2zMcqy0yixXODWUq-39">
          <mxCell style="rounded=0;whiteSpace=wrap;html=1;noLabel=1;container=0;editable=0;movable=1;resizable=1;rotatable=1;deletable=1;locked=0;connectable=0;fillColor=none;" vertex="1" parent="GLuP2zMcqy0yixXODWUq-38">
            <mxGeometry width="160" height="40" as="geometry" />
          </mxCell>
        </object>
        <mxCell id="GLuP2zMcqy0yixXODWUq-40" value="" style="rounded=0;whiteSpace=wrap;html=1;fillColor=#000000;fontColor=#ffffff;strokeColor=#000000;strokeWidth=1;deletable=1;cloneable=0;movable=1;editable=1;resizable=1;rotatable=1;locked=0;connectable=1;container=0;expand=0;recursiveResize=0;allowArrows=0;" vertex="1" parent="GLuP2zMcqy0yixXODWUq-38">
          <mxGeometry x="6.000000000000028" y="14" width="10" height="10" as="geometry" />
        </mxCell>
        <mxCell id="GLuP2zMcqy0yixXODWUq-41" value="" style="endArrow=block;html=1;rounded=0;endFill=1;startSize=2;endSize=3;strokeWidth=1;deletable=1;cloneable=0;movable=1;editable=1;resizable=1;rotatable=1;locked=0;connectable=1;" edge="1" parent="GLuP2zMcqy0yixXODWUq-38">
          <mxGeometry width="50" height="50" relative="1" as="geometry">
            <mxPoint x="15.000000000000028" y="14" as="sourcePoint" />
            <mxPoint x="28.00000000000003" y="14" as="targetPoint" />
          </mxGeometry>
        </mxCell>
        <mxCell id="GLuP2zMcqy0yixXODWUq-42" value="" style="endArrow=block;html=1;rounded=0;endFill=1;startSize=2;endSize=3;strokeWidth=1;deletable=1;cloneable=0;movable=1;editable=1;resizable=1;rotatable=1;locked=0;connectable=1;" edge="1" parent="GLuP2zMcqy0yixXODWUq-38">
          <mxGeometry width="50" height="50" relative="1" as="geometry">
            <mxPoint x="6.000000000000028" y="22" as="sourcePoint" />
            <mxPoint x="6.000000000000028" y="36" as="targetPoint" />
          </mxGeometry>
        </mxCell>
        <mxCell id="GLuP2zMcqy0yixXODWUq-43" value="" style="endArrow=block;html=1;rounded=0;endFill=1;startSize=2;endSize=3;strokeWidth=1;deletable=1;cloneable=0;movable=1;editable=1;resizable=1;rotatable=1;locked=0;connectable=1;" edge="1" parent="GLuP2zMcqy0yixXODWUq-38">
          <mxGeometry width="50" height="50" relative="1" as="geometry">
            <mxPoint x="6.000000000000028" y="14" as="sourcePoint" />
            <mxPoint x="17.00000000000003" y="4" as="targetPoint" />
          </mxGeometry>
        </mxCell>
        <object label="Process Status" btelligentShapeType="Dimension" btelligentLibrary="ADAPT" id="GLuP2zMcqy0yixXODWUq-44">
          <mxCell style="group;fillColor=default;verticalAlign=middle;align=left;spacingLeft=31;fontStyle=1;connectable=1;whiteSpace=wrap;" vertex="1" connectable="0" parent="1">
            <mxGeometry x="-80" y="480" width="160" height="40" as="geometry" />
          </mxCell>
        </object>
        <object label="GGG" id="GLuP2zMcqy0yixXODWUq-45">
          <mxCell style="rounded=0;whiteSpace=wrap;html=1;noLabel=1;container=0;editable=0;movable=1;resizable=1;rotatable=1;deletable=1;locked=0;connectable=0;fillColor=none;" vertex="1" parent="GLuP2zMcqy0yixXODWUq-44">
            <mxGeometry width="160" height="40" as="geometry" />
          </mxCell>
        </object>
        <mxCell id="GLuP2zMcqy0yixXODWUq-46" value="" style="rounded=0;whiteSpace=wrap;html=1;fillColor=#000000;fontColor=#ffffff;strokeColor=#000000;strokeWidth=1;deletable=1;cloneable=0;movable=1;editable=1;resizable=1;rotatable=1;locked=0;connectable=1;container=0;expand=0;recursiveResize=0;allowArrows=0;" vertex="1" parent="GLuP2zMcqy0yixXODWUq-44">
          <mxGeometry x="6.000000000000028" y="14" width="10" height="10" as="geometry" />
        </mxCell>
        <mxCell id="GLuP2zMcqy0yixXODWUq-47" value="" style="endArrow=block;html=1;rounded=0;endFill=1;startSize=2;endSize=3;strokeWidth=1;deletable=1;cloneable=0;movable=1;editable=1;resizable=1;rotatable=1;locked=0;connectable=1;" edge="1" parent="GLuP2zMcqy0yixXODWUq-44">
          <mxGeometry width="50" height="50" relative="1" as="geometry">
            <mxPoint x="15.000000000000028" y="14" as="sourcePoint" />
            <mxPoint x="28.00000000000003" y="14" as="targetPoint" />
          </mxGeometry>
        </mxCell>
        <mxCell id="GLuP2zMcqy0yixXODWUq-48" value="" style="endArrow=block;html=1;rounded=0;endFill=1;startSize=2;endSize=3;strokeWidth=1;deletable=1;cloneable=0;movable=1;editable=1;resizable=1;rotatable=1;locked=0;connectable=1;" edge="1" parent="GLuP2zMcqy0yixXODWUq-44">
          <mxGeometry width="50" height="50" relative="1" as="geometry">
            <mxPoint x="6.000000000000028" y="22" as="sourcePoint" />
            <mxPoint x="6.000000000000028" y="36" as="targetPoint" />
          </mxGeometry>
        </mxCell>
        <mxCell id="GLuP2zMcqy0yixXODWUq-49" value="" style="endArrow=block;html=1;rounded=0;endFill=1;startSize=2;endSize=3;strokeWidth=1;deletable=1;cloneable=0;movable=1;editable=1;resizable=1;rotatable=1;locked=0;connectable=1;" edge="1" parent="GLuP2zMcqy0yixXODWUq-44">
          <mxGeometry width="50" height="50" relative="1" as="geometry">
            <mxPoint x="6.000000000000028" y="14" as="sourcePoint" />
            <mxPoint x="17.00000000000003" y="4" as="targetPoint" />
          </mxGeometry>
        </mxCell>
        <object label="Article" btelligentShapeType="Dimension" btelligentLibrary="ADAPT" id="GLuP2zMcqy0yixXODWUq-50">
          <mxCell style="group;fillColor=default;verticalAlign=middle;align=left;spacingLeft=31;fontStyle=1;connectable=1;whiteSpace=wrap;" vertex="1" connectable="0" parent="1">
            <mxGeometry x="-80" y="319.75" width="160" height="40" as="geometry" />
          </mxCell>
        </object>
        <object label="GGG" id="GLuP2zMcqy0yixXODWUq-51">
          <mxCell style="rounded=0;whiteSpace=wrap;html=1;noLabel=1;container=0;editable=0;movable=1;resizable=1;rotatable=1;deletable=1;locked=0;connectable=0;fillColor=none;" vertex="1" parent="GLuP2zMcqy0yixXODWUq-50">
            <mxGeometry width="160" height="40" as="geometry" />
          </mxCell>
        </object>
        <mxCell id="GLuP2zMcqy0yixXODWUq-52" value="" style="rounded=0;whiteSpace=wrap;html=1;fillColor=#000000;fontColor=#ffffff;strokeColor=#000000;strokeWidth=1;deletable=1;cloneable=0;movable=1;editable=1;resizable=1;rotatable=1;locked=0;connectable=1;container=0;expand=0;recursiveResize=0;allowArrows=0;" vertex="1" parent="GLuP2zMcqy0yixXODWUq-50">
          <mxGeometry x="6.000000000000028" y="14" width="10" height="10" as="geometry" />
        </mxCell>
        <mxCell id="GLuP2zMcqy0yixXODWUq-53" value="" style="endArrow=block;html=1;rounded=0;endFill=1;startSize=2;endSize=3;strokeWidth=1;deletable=1;cloneable=0;movable=1;editable=1;resizable=1;rotatable=1;locked=0;connectable=1;" edge="1" parent="GLuP2zMcqy0yixXODWUq-50">
          <mxGeometry width="50" height="50" relative="1" as="geometry">
            <mxPoint x="15.000000000000028" y="14" as="sourcePoint" />
            <mxPoint x="28.00000000000003" y="14" as="targetPoint" />
          </mxGeometry>
        </mxCell>
        <mxCell id="GLuP2zMcqy0yixXODWUq-54" value="" style="endArrow=block;html=1;rounded=0;endFill=1;startSize=2;endSize=3;strokeWidth=1;deletable=1;cloneable=0;movable=1;editable=1;resizable=1;rotatable=1;locked=0;connectable=1;" edge="1" parent="GLuP2zMcqy0yixXODWUq-50">
          <mxGeometry width="50" height="50" relative="1" as="geometry">
            <mxPoint x="6.000000000000028" y="22" as="sourcePoint" />
            <mxPoint x="6.000000000000028" y="36" as="targetPoint" />
          </mxGeometry>
        </mxCell>
        <mxCell id="GLuP2zMcqy0yixXODWUq-55" value="" style="endArrow=block;html=1;rounded=0;endFill=1;startSize=2;endSize=3;strokeWidth=1;deletable=1;cloneable=0;movable=1;editable=1;resizable=1;rotatable=1;locked=0;connectable=1;" edge="1" parent="GLuP2zMcqy0yixXODWUq-50">
          <mxGeometry width="50" height="50" relative="1" as="geometry">
            <mxPoint x="6.000000000000028" y="14" as="sourcePoint" />
            <mxPoint x="17.00000000000003" y="4" as="targetPoint" />
          </mxGeometry>
        </mxCell>
        <UserObject label="" btelligentShapeType="LoosePrecedence" btelligentLibrary="ADAPT" id="GLuP2zMcqy0yixXODWUq-56">
          <mxCell style="vsdxID=5;startArrow=none;endArrow=block;startSize=10;endSize=10;strokeColor=#000000;spacingTop=2;spacingBottom=2;spacingLeft=2;spacingRight=2;verticalAlign=middle;html=1;labelBackgroundColor=#FFFFFF;rounded=1;jumpStyle=arc;startFill=0;endFill=1;fontStyle=2;labelBorderColor=none;edgeStyle=orthogonalEdgeStyle;" edge="1" parent="1" source="GLuP2zMcqy0yixXODWUq-1" target="GLuP2zMcqy0yixXODWUq-8">
            <mxGeometry relative="1" as="geometry">
              <mxPoint x="410" y="400" as="sourcePoint" />
              <mxPoint x="410" y="460" as="targetPoint" />
              <mxPoint as="offset" />
              <Array as="points">
                <mxPoint x="160" y="340" />
                <mxPoint x="160" y="180" />
              </Array>
            </mxGeometry>
          </mxCell>
        </UserObject>
        <UserObject label="" btelligentShapeType="LoosePrecedence" btelligentLibrary="ADAPT" id="GLuP2zMcqy0yixXODWUq-57">
          <mxCell style="vsdxID=5;startArrow=none;endArrow=block;startSize=10;endSize=10;strokeColor=#000000;spacingTop=2;spacingBottom=2;spacingLeft=2;spacingRight=2;verticalAlign=middle;html=1;labelBackgroundColor=#FFFFFF;rounded=1;jumpStyle=arc;startFill=0;endFill=1;fontStyle=2;labelBorderColor=none;edgeStyle=orthogonalEdgeStyle;" edge="1" parent="1" source="GLuP2zMcqy0yixXODWUq-1" target="GLuP2zMcqy0yixXODWUq-38">
            <mxGeometry relative="1" as="geometry">
              <mxPoint x="250" y="350" as="sourcePoint" />
              <mxPoint x="50" y="210" as="targetPoint" />
              <mxPoint as="offset" />
              <Array as="points">
                <mxPoint x="160" y="340" />
                <mxPoint x="160" y="260" />
              </Array>
            </mxGeometry>
          </mxCell>
        </UserObject>
        <UserObject label="" btelligentShapeType="LoosePrecedence" btelligentLibrary="ADAPT" id="GLuP2zMcqy0yixXODWUq-58">
          <mxCell style="vsdxID=5;startArrow=none;endArrow=block;startSize=10;endSize=10;strokeColor=#000000;spacingTop=2;spacingBottom=2;spacingLeft=2;spacingRight=2;verticalAlign=middle;html=1;labelBackgroundColor=#FFFFFF;rounded=1;jumpStyle=arc;startFill=0;endFill=1;fontStyle=2;labelBorderColor=none;edgeStyle=orthogonalEdgeStyle;" edge="1" parent="1" source="GLuP2zMcqy0yixXODWUq-1" target="GLuP2zMcqy0yixXODWUq-50">
            <mxGeometry relative="1" as="geometry">
              <mxPoint x="260" y="360" as="sourcePoint" />
              <mxPoint x="60" y="220" as="targetPoint" />
              <mxPoint as="offset" />
            </mxGeometry>
          </mxCell>
        </UserObject>
        <UserObject label="" btelligentShapeType="LoosePrecedence" btelligentLibrary="ADAPT" id="GLuP2zMcqy0yixXODWUq-59">
          <mxCell style="vsdxID=5;startArrow=none;endArrow=block;startSize=10;endSize=10;strokeColor=#000000;spacingTop=2;spacingBottom=2;spacingLeft=2;spacingRight=2;verticalAlign=middle;html=1;labelBackgroundColor=#FFFFFF;rounded=1;jumpStyle=arc;startFill=0;endFill=1;fontStyle=2;labelBorderColor=none;edgeStyle=orthogonalEdgeStyle;" edge="1" parent="1" source="GLuP2zMcqy0yixXODWUq-1" target="GLuP2zMcqy0yixXODWUq-32">
            <mxGeometry relative="1" as="geometry">
              <mxPoint x="270" y="370" as="sourcePoint" />
              <mxPoint x="70" y="230" as="targetPoint" />
              <mxPoint as="offset" />
              <Array as="points">
                <mxPoint x="160" y="340" />
                <mxPoint x="160" y="420" />
              </Array>
            </mxGeometry>
          </mxCell>
        </UserObject>
        <UserObject label="" btelligentShapeType="LoosePrecedence" btelligentLibrary="ADAPT" id="GLuP2zMcqy0yixXODWUq-60">
          <mxCell style="vsdxID=5;startArrow=none;endArrow=block;startSize=10;endSize=10;strokeColor=#000000;spacingTop=2;spacingBottom=2;spacingLeft=2;spacingRight=2;verticalAlign=middle;html=1;labelBackgroundColor=#FFFFFF;rounded=1;jumpStyle=arc;startFill=0;endFill=1;fontStyle=2;labelBorderColor=none;edgeStyle=orthogonalEdgeStyle;" edge="1" parent="1" source="GLuP2zMcqy0yixXODWUq-1" target="GLuP2zMcqy0yixXODWUq-44">
            <mxGeometry relative="1" as="geometry">
              <mxPoint x="280" y="380" as="sourcePoint" />
              <mxPoint x="80" y="240" as="targetPoint" />
              <mxPoint as="offset" />
              <Array as="points">
                <mxPoint x="160" y="340" />
                <mxPoint x="160" y="500" />
              </Array>
            </mxGeometry>
          </mxCell>
        </UserObject>
        <UserObject label="transaction" btelligentShapeType="LoosePrecedence" btelligentLibrary="ADAPT" id="GLuP2zMcqy0yixXODWUq-61">
          <mxCell style="vsdxID=5;startArrow=none;endArrow=block;startSize=10;endSize=10;strokeColor=#000000;spacingTop=2;spacingBottom=2;spacingLeft=2;spacingRight=2;verticalAlign=middle;html=1;labelBackgroundColor=#FFFFFF;rounded=1;jumpStyle=arc;startFill=0;endFill=1;fontStyle=2;labelBorderColor=none;edgeStyle=orthogonalEdgeStyle;" edge="1" parent="1" source="GLuP2zMcqy0yixXODWUq-1" target="GLuP2zMcqy0yixXODWUq-26">
            <mxGeometry x="0.2" relative="1" as="geometry">
              <mxPoint x="250" y="350" as="sourcePoint" />
              <mxPoint x="130" y="190" as="targetPoint" />
              <mxPoint as="offset" />
              <Array as="points">
                <mxPoint x="420" y="340" />
                <mxPoint x="420" y="340" />
              </Array>
            </mxGeometry>
          </mxCell>
        </UserObject>
        <UserObject label="transaction" btelligentShapeType="LoosePrecedence" btelligentLibrary="ADAPT" id="GLuP2zMcqy0yixXODWUq-62">
          <mxCell style="vsdxID=5;startArrow=none;endArrow=block;startSize=10;endSize=10;strokeColor=#000000;spacingTop=2;spacingBottom=2;spacingLeft=2;spacingRight=2;verticalAlign=middle;html=1;labelBackgroundColor=#FFFFFF;rounded=1;jumpStyle=arc;startFill=0;endFill=1;fontStyle=2;labelBorderColor=none;edgeStyle=orthogonalEdgeStyle;" edge="1" parent="1" source="GLuP2zMcqy0yixXODWUq-1" target="GLuP2zMcqy0yixXODWUq-14">
            <mxGeometry x="0.4285" relative="1" as="geometry">
              <mxPoint x="410" y="350" as="sourcePoint" />
              <mxPoint x="530" y="350" as="targetPoint" />
              <mxPoint as="offset" />
              <Array as="points">
                <mxPoint x="440" y="340" />
                <mxPoint x="440" y="420" />
              </Array>
            </mxGeometry>
          </mxCell>
        </UserObject>
        <UserObject label="finished" btelligentShapeType="LoosePrecedence" btelligentLibrary="ADAPT" id="GLuP2zMcqy0yixXODWUq-63">
          <mxCell style="vsdxID=5;startArrow=none;endArrow=block;startSize=10;endSize=10;strokeColor=#000000;spacingTop=2;spacingBottom=2;spacingLeft=2;spacingRight=2;verticalAlign=middle;html=1;labelBackgroundColor=#FFFFFF;rounded=1;jumpStyle=arc;startFill=0;endFill=1;fontStyle=2;labelBorderColor=none;edgeStyle=orthogonalEdgeStyle;" edge="1" parent="1" source="GLuP2zMcqy0yixXODWUq-1" target="GLuP2zMcqy0yixXODWUq-20">
            <mxGeometry x="0.4287" relative="1" as="geometry">
              <mxPoint x="420" y="360" as="sourcePoint" />
              <mxPoint x="540" y="360" as="targetPoint" />
              <mxPoint as="offset" />
              <Array as="points">
                <mxPoint x="440" y="340" />
                <mxPoint x="440" y="260" />
              </Array>
            </mxGeometry>
          </mxCell>
        </UserObject>
        <object label="Advice Line Measures" btelligentShapeType="MeasureDimension" btelligentLibrary="ADAPT" id="GLuP2zMcqy0yixXODWUq-65">
          <mxCell style="group;fillColor=default;verticalAlign=middle;align=left;spacingLeft=36;whiteSpace=wrap;fontStyle=1;connectable=1;" vertex="1" connectable="0" parent="1">
            <mxGeometry x="240" y="480" width="160" height="40" as="geometry" />
          </mxCell>
        </object>
        <object label="" ADAPT="Measure Dimension" id="GLuP2zMcqy0yixXODWUq-66">
          <mxCell style="rounded=0;whiteSpace=wrap;html=1;align=left;spacingLeft=37;fontStyle=0;fontFamily=Helvetica;fontSize=13;noLabel=1;connectable=0;editable=0;movable=1;resizable=1;rotatable=1;deletable=1;locked=0;fillColor=none;" vertex="1" parent="GLuP2zMcqy0yixXODWUq-65">
            <mxGeometry width="160" height="40" as="geometry" />
          </mxCell>
        </object>
        <mxCell id="GLuP2zMcqy0yixXODWUq-67" value="" style="group" vertex="1" connectable="0" parent="GLuP2zMcqy0yixXODWUq-65">
          <mxGeometry x="6" y="10" width="25" height="20" as="geometry" />
        </mxCell>
        <mxCell id="GLuP2zMcqy0yixXODWUq-68" value="" style="rounded=0;whiteSpace=wrap;html=1;fillColor=#C0C0C0;fontColor=#333333;strokeColor=#000000;" vertex="1" parent="GLuP2zMcqy0yixXODWUq-67">
          <mxGeometry width="25" height="20" as="geometry" />
        </mxCell>
        <mxCell id="GLuP2zMcqy0yixXODWUq-69" value="" style="endArrow=none;html=1;rounded=0;entryX=0.25;entryY=0;entryDx=0;entryDy=0;" edge="1" parent="GLuP2zMcqy0yixXODWUq-67" target="GLuP2zMcqy0yixXODWUq-68">
          <mxGeometry width="50" height="50" relative="1" as="geometry">
            <mxPoint x="6.25" y="6.666666666666666" as="sourcePoint" />
            <mxPoint x="8.333333333333332" y="25" as="targetPoint" />
          </mxGeometry>
        </mxCell>
        <mxCell id="GLuP2zMcqy0yixXODWUq-70" value="" style="endArrow=none;html=1;rounded=0;entryX=0.5;entryY=0;entryDx=0;entryDy=0;" edge="1" parent="GLuP2zMcqy0yixXODWUq-67" target="GLuP2zMcqy0yixXODWUq-68">
          <mxGeometry width="50" height="50" relative="1" as="geometry">
            <mxPoint x="12.5" y="13.333333333333332" as="sourcePoint" />
            <mxPoint x="12.464583333333342" y="3.333333333333333" as="targetPoint" />
          </mxGeometry>
        </mxCell>
        <mxCell id="GLuP2zMcqy0yixXODWUq-71" value="" style="endArrow=none;html=1;rounded=0;entryX=0.75;entryY=0;entryDx=0;entryDy=0;" edge="1" parent="GLuP2zMcqy0yixXODWUq-67" target="GLuP2zMcqy0yixXODWUq-68">
          <mxGeometry width="50" height="50" relative="1" as="geometry">
            <mxPoint x="18.75" y="6.666666666666666" as="sourcePoint" />
            <mxPoint x="10.416666666666668" y="6.666666666666666" as="targetPoint" />
          </mxGeometry>
        </mxCell>
        <UserObject label="" btelligentShapeType="LoosePrecedence" btelligentLibrary="ADAPT" id="GLuP2zMcqy0yixXODWUq-72">
          <mxCell style="vsdxID=5;startArrow=none;endArrow=block;startSize=10;endSize=10;strokeColor=#000000;spacingTop=2;spacingBottom=2;spacingLeft=2;spacingRight=2;verticalAlign=middle;html=1;labelBackgroundColor=#FFFFFF;rounded=1;jumpStyle=arc;startFill=0;endFill=1;fontStyle=2;labelBorderColor=none;edgeStyle=orthogonalEdgeStyle;" edge="1" parent="1" source="GLuP2zMcqy0yixXODWUq-1" target="GLuP2zMcqy0yixXODWUq-65">
            <mxGeometry relative="1" as="geometry">
              <mxPoint x="340" y="390" as="sourcePoint" />
              <mxPoint x="340" y="450" as="targetPoint" />
              <mxPoint as="offset" />
            </mxGeometry>
          </mxCell>
        </UserObject>
        <object label="pieces" btelligentShapeType="DimensionMember" btelligentLibrary="ADAPT" id="GLuP2zMcqy0yixXODWUq-73">
          <mxCell style="group;fillColor=default;verticalAlign=middle;align=left;spacingLeft=34;whiteSpace=wrap;connectable=1;" vertex="1" connectable="0" parent="1">
            <mxGeometry x="400" y="560" width="160" height="40" as="geometry" />
          </mxCell>
        </object>
        <object label="" ADAPT="DimensionMember" id="GLuP2zMcqy0yixXODWUq-74">
          <mxCell style="rounded=1;whiteSpace=wrap;html=1;arcSize=50;align=left;spacingLeft=38;fillColor=none;noLabel=1;connectable=0;editable=0;movable=1;resizable=1;rotatable=1;deletable=1;locked=0;" vertex="1" parent="GLuP2zMcqy0yixXODWUq-73">
            <mxGeometry width="160" height="40" as="geometry" />
          </mxCell>
        </object>
        <mxCell id="GLuP2zMcqy0yixXODWUq-75" value="" style="group;movable=0;resizable=0;rotatable=0;deletable=0;editable=0;locked=1;connectable=0;" vertex="1" connectable="0" parent="GLuP2zMcqy0yixXODWUq-73">
          <mxGeometry x="3" y="3" width="30" height="30" as="geometry" />
        </mxCell>
        <mxCell id="GLuP2zMcqy0yixXODWUq-76" value="&lt;div style=&quot;font-size: 24px;&quot;&gt;&lt;font style=&quot;font-size: 24px; font-family: Calibri; color: rgb(0, 0, 0); direction: ltr; letter-spacing: 0px; line-height: 120%; opacity: 1;&quot;&gt;{&amp;nbsp;  }&lt;br style=&quot;font-size: 24px;&quot;&gt;&lt;/font&gt;&lt;/div&gt;" style="verticalAlign=middle;align=center;overflow=width;vsdxID=10;fillColor=none;gradientColor=none;shape=stencil(nZBLDoAgDERP0z3SIyjew0SURgSD+Lu9kMZoXLhwN9O+tukAlrNpJg1SzDH4QW/URgNYgZTkjA4UkwJUgGXng+6DX1zLfmoymdXo17xh5zmRJ6Q42BWCfc2oJfdAr+Yv+AP9Cb7OJ3H/2JG1HNGz/84klThPVCc=);strokeColor=none;spacingTop=0;spacingBottom=0;spacingLeft=0;spacingRight=0;points=[];labelBackgroundColor=none;rounded=0;html=1;whiteSpace=wrap;container=0;fontSize=24;fontStyle=0;horizontal=1;" vertex="1" parent="GLuP2zMcqy0yixXODWUq-75">
          <mxGeometry width="30" height="30" as="geometry" />
        </mxCell>
        <mxCell id="GLuP2zMcqy0yixXODWUq-77" value="" style="ellipse;whiteSpace=wrap;html=1;aspect=fixed;fillColor=#c0c0c0;strokeColor=#330000;" vertex="1" parent="GLuP2zMcqy0yixXODWUq-75">
          <mxGeometry x="10" y="12" width="11" height="11" as="geometry" />
        </mxCell>
        <object label="avg pieces per advice line" btelligentShapeType="DimensionMember" btelligentLibrary="ADAPT" id="GLuP2zMcqy0yixXODWUq-78">
          <mxCell style="group;fillColor=default;verticalAlign=middle;align=left;spacingLeft=34;whiteSpace=wrap;connectable=1;" vertex="1" connectable="0" parent="1">
            <mxGeometry x="400" y="620" width="160" height="40" as="geometry" />
          </mxCell>
        </object>
        <object label="" ADAPT="DimensionMember" id="GLuP2zMcqy0yixXODWUq-79">
          <mxCell style="rounded=1;whiteSpace=wrap;html=1;arcSize=50;align=left;spacingLeft=38;fillColor=none;noLabel=1;connectable=0;editable=0;movable=1;resizable=1;rotatable=1;deletable=1;locked=0;" vertex="1" parent="GLuP2zMcqy0yixXODWUq-78">
            <mxGeometry width="160" height="40" as="geometry" />
          </mxCell>
        </object>
        <mxCell id="GLuP2zMcqy0yixXODWUq-80" value="" style="group;movable=0;resizable=0;rotatable=0;deletable=0;editable=0;locked=1;connectable=0;" vertex="1" connectable="0" parent="GLuP2zMcqy0yixXODWUq-78">
          <mxGeometry x="3" y="3" width="30" height="30" as="geometry" />
        </mxCell>
        <mxCell id="GLuP2zMcqy0yixXODWUq-81" value="&lt;div style=&quot;font-size: 24px;&quot;&gt;&lt;font style=&quot;font-size: 24px; font-family: Calibri; color: rgb(0, 0, 0); direction: ltr; letter-spacing: 0px; line-height: 120%; opacity: 1;&quot;&gt;{&amp;nbsp;  }&lt;br style=&quot;font-size: 24px;&quot;&gt;&lt;/font&gt;&lt;/div&gt;" style="verticalAlign=middle;align=center;overflow=width;vsdxID=10;fillColor=none;gradientColor=none;shape=stencil(nZBLDoAgDERP0z3SIyjew0SURgSD+Lu9kMZoXLhwN9O+tukAlrNpJg1SzDH4QW/URgNYgZTkjA4UkwJUgGXng+6DX1zLfmoymdXo17xh5zmRJ6Q42BWCfc2oJfdAr+Yv+AP9Cb7OJ3H/2JG1HNGz/84klThPVCc=);strokeColor=none;spacingTop=0;spacingBottom=0;spacingLeft=0;spacingRight=0;points=[];labelBackgroundColor=none;rounded=0;html=1;whiteSpace=wrap;container=0;fontSize=24;fontStyle=0;horizontal=1;" vertex="1" parent="GLuP2zMcqy0yixXODWUq-80">
          <mxGeometry width="30" height="30" as="geometry" />
        </mxCell>
        <mxCell id="GLuP2zMcqy0yixXODWUq-82" value="" style="ellipse;whiteSpace=wrap;html=1;aspect=fixed;fillColor=#c0c0c0;strokeColor=#330000;" vertex="1" parent="GLuP2zMcqy0yixXODWUq-80">
          <mxGeometry x="10" y="12" width="11" height="11" as="geometry" />
        </mxCell>
        <UserObject label="" btelligentShapeType="LoosePrecedence" btelligentLibrary="ADAPT" id="GLuP2zMcqy0yixXODWUq-83">
          <mxCell style="vsdxID=5;startArrow=none;endArrow=block;startSize=10;endSize=10;strokeColor=#000000;spacingTop=2;spacingBottom=2;spacingLeft=2;spacingRight=2;verticalAlign=middle;html=1;labelBackgroundColor=#FFFFFF;rounded=1;jumpStyle=arc;startFill=0;endFill=1;fontStyle=2;labelBorderColor=none;edgeStyle=orthogonalEdgeStyle;" edge="1" parent="1" source="GLuP2zMcqy0yixXODWUq-65" target="GLuP2zMcqy0yixXODWUq-73">
            <mxGeometry relative="1" as="geometry">
              <mxPoint x="250" y="350" as="sourcePoint" />
              <mxPoint x="90" y="510" as="targetPoint" />
              <mxPoint as="offset" />
              <Array as="points">
                <mxPoint x="320" y="580" />
              </Array>
            </mxGeometry>
          </mxCell>
        </UserObject>
        <UserObject label="" btelligentShapeType="LoosePrecedence" btelligentLibrary="ADAPT" id="GLuP2zMcqy0yixXODWUq-84">
          <mxCell style="vsdxID=5;startArrow=none;endArrow=block;startSize=10;endSize=10;strokeColor=#000000;spacingTop=2;spacingBottom=2;spacingLeft=2;spacingRight=2;verticalAlign=middle;html=1;labelBackgroundColor=#FFFFFF;rounded=1;jumpStyle=arc;startFill=0;endFill=1;fontStyle=2;labelBorderColor=none;edgeStyle=orthogonalEdgeStyle;" edge="1" parent="1" source="GLuP2zMcqy0yixXODWUq-65" target="GLuP2zMcqy0yixXODWUq-78">
            <mxGeometry relative="1" as="geometry">
              <mxPoint x="330" y="530" as="sourcePoint" />
              <mxPoint x="410" y="590" as="targetPoint" />
              <mxPoint as="offset" />
              <Array as="points">
                <mxPoint x="320" y="640" />
              </Array>
            </mxGeometry>
          </mxCell>
        </UserObject>
        <object label="pieces / count()" btelligentShapeType="Function" btelligentLibrary="ADAPT" id="GLuP2zMcqy0yixXODWUq-85">
          <mxCell style="group;fillColor=default;verticalAlign=middle;align=left;spacingLeft=32;fontStyle=2;html=1;connectable=1;" vertex="1" connectable="0" parent="1">
            <mxGeometry x="600" y="620" width="160" height="40" as="geometry" />
          </mxCell>
        </object>
        <object label="" ADAPT="Function" id="GLuP2zMcqy0yixXODWUq-86">
          <mxCell style="shape=parallelogram;perimeter=parallelogramPerimeter;whiteSpace=wrap;html=1;fixedSize=1;size=10;align=left;spacingLeft=37;fillColor=none;noLabel=1;connectable=0;editable=0;" vertex="1" parent="GLuP2zMcqy0yixXODWUq-85">
            <mxGeometry width="160" height="40" as="geometry" />
          </mxCell>
        </object>
        <mxCell id="GLuP2zMcqy0yixXODWUq-87" value="" style="group;movable=0;resizable=0;rotatable=0;deletable=0;editable=0;locked=1;connectable=0;" vertex="1" connectable="0" parent="GLuP2zMcqy0yixXODWUq-85">
          <mxGeometry x="12" y="10" width="18.000000000000014" height="19.19999999999999" as="geometry" />
        </mxCell>
        <mxCell id="GLuP2zMcqy0yixXODWUq-88" style="vsdxID=9;fillColor=#FFFFFF;gradientColor=none;shape=stencil(tVHREoIgEPwaHnEQssln0/9gEpXJxDko6e+DOSqzx6a329u9vYMlorKDnBXhzDowZ7Xo1g1EHAnnehoUaBcqImoiqs6A6sFcpxbxLKMyVhdziw4e53LG4gxnd8SIGpRKOAUGkpQXh6zYoxqSPC8zscOWXxs87YoEPZVeWwrGSafNhGSZyFFCr2hYRrtR9h82dlFq/mr/cN72vS/8lwtD8f54zGzNbUMKLQxY1A8=);strokeColor=#000000;spacingTop=-3;spacingBottom=-3;spacingLeft=-3;spacingRight=-3;points=[];labelBackgroundColor=none;rounded=0;html=1;whiteSpace=wrap;container=0;" vertex="1" parent="GLuP2zMcqy0yixXODWUq-87">
          <mxGeometry x="9.360000000000014" y="5.600000000000023" width="2.16" height="12" as="geometry" />
        </mxCell>
        <mxCell id="GLuP2zMcqy0yixXODWUq-89" style="vsdxID=10;fillColor=#FFFFFF;gradientColor=none;shape=stencil(tVHREoIgEPwaHnEQssln0/9gEpXJxDko6e+DOSqzx6a329u9vYMlorKDnBXhzDowZ7Xo1g1EHAnnehoUaBcqImoiqs6A6sFcpxbxLKMyVhdziw4e53LG4gxnd8SIGpRKOAUGkpQXh6zYoxqSPC8zscOWXxs87YoEPZVeWwrGSafNhGSZyFFCr2hYRrtR9h82dlFq/mr/cN72vS/8lwtD8f54zGzNbUMKLQxY1A8=);strokeColor=#000000;spacingTop=-3;spacingBottom=-3;spacingLeft=-3;spacingRight=-3;flipH=1;points=[];labelBackgroundColor=none;rounded=0;html=1;whiteSpace=wrap;container=0;" vertex="1" parent="GLuP2zMcqy0yixXODWUq-87">
          <mxGeometry x="15.840000000000018" y="5.600000000000023" width="2.16" height="12" as="geometry" />
        </mxCell>
        <mxCell id="GLuP2zMcqy0yixXODWUq-90" style="vsdxID=12;fillColor=#FFFFFF;gradientColor=none;shape=stencil(rVHREoIgEPwaHnEQbNJns/9gEoXJxDko7e+DOSqtt6a329u9u4UlonZaTopw5jzYs5pN6zURB8K5GbUC40NFRENE3VlQPdjr2CKeZFTG6mJvccOCczljcYazO2JER5RKOAUGkrSssqJEMSQ132dVga0k2m3XPeFC5WIcBeulN3ZEskrkIKFXNByj3SD7tQ/mZqWmr/bv9rbuXo//l718bS8U71/HwNbcZ0KhhemK5gE=);strokeColor=#000000;spacingTop=-3;spacingBottom=-3;spacingLeft=-3;spacingRight=-3;points=[];labelBackgroundColor=none;rounded=0;html=1;whiteSpace=wrap;container=0;" vertex="1" parent="GLuP2zMcqy0yixXODWUq-87">
          <mxGeometry width="9.36" height="19.200000000000003" as="geometry" />
        </mxCell>
        <mxCell id="GLuP2zMcqy0yixXODWUq-91" style="vsdxID=13;edgeStyle=none;startArrow=none;endArrow=none;startSize=5;endSize=5;strokeColor=#000000;spacingTop=-3;spacingBottom=-3;spacingLeft=-3;spacingRight=-3;verticalAlign=middle;html=1;labelBackgroundColor=none;rounded=0;" edge="1" parent="GLuP2zMcqy0yixXODWUq-87">
          <mxGeometry relative="1" as="geometry">
            <mxPoint as="offset" />
            <Array as="points" />
            <mxPoint x="2.1599999999999966" y="8.800000000000011" as="sourcePoint" />
            <mxPoint x="7.200000000000003" y="8.800000000000011" as="targetPoint" />
          </mxGeometry>
        </mxCell>
        <UserObject label="" btelligentShapeType="LoosePrecedence" btelligentLibrary="ADAPT" id="GLuP2zMcqy0yixXODWUq-92">
          <mxCell style="vsdxID=5;startArrow=none;endArrow=block;startSize=10;endSize=10;strokeColor=#000000;spacingTop=2;spacingBottom=2;spacingLeft=2;spacingRight=2;verticalAlign=middle;html=1;labelBackgroundColor=#FFFFFF;rounded=1;jumpStyle=arc;startFill=0;endFill=1;fontStyle=2;labelBorderColor=none;edgeStyle=orthogonalEdgeStyle;" edge="1" parent="1" source="GLuP2zMcqy0yixXODWUq-78" target="GLuP2zMcqy0yixXODWUq-85">
            <mxGeometry relative="1" as="geometry">
              <mxPoint x="330" y="530" as="sourcePoint" />
              <mxPoint x="410" y="650" as="targetPoint" />
              <mxPoint as="offset" />
              <Array as="points">
                <mxPoint x="570" y="640" />
                <mxPoint x="570" y="640" />
              </Array>
            </mxGeometry>
          </mxCell>
        </UserObject>
        <object label="Kann man dem &quot;Leser&quot; vermitteln, dass Default-Aggregationen (sum, count, avg, min, max) nicht explizit &quot;modelliert&quot; werden?" btelligentLibrary="ADAPT" btelligentShapeType="Comment" id="GLuP2zMcqy0yixXODWUq-93">
          <mxCell style="shape=note;whiteSpace=wrap;html=1;backgroundOutline=1;darkOpacity=0.05;size=10;fillColor=#fff2cc;strokeColor=#F5E08C;fontSize=10;verticalAlign=top;align=left;spacingLeft=3;spacingRight=3;" vertex="1" parent="1">
            <mxGeometry x="550" y="520" width="230" height="50" as="geometry" />
          </mxCell>
        </object>
      </root>
    </mxGraphModel>
  </diagram>
</mxfile>
